<svg xmlns="http://www.w3.org/2000/svg" viewBox="0 0 304 64" width="304" height="64" role="img" aria-label="docloom">
  <defs>
    <linearGradient id="g" x1="0" y1="0" x2="1" y2="1">
      <stop offset="0" stop-color="#5b6cff"/><stop offset="1" stop-color="#8b5bff"/>
    </linearGradient>
    <linearGradient id="gt" x1="0" y1="0" x2="1" y2="0">
      <stop offset="0" stop-color="#5b6cff"/><stop offset="1" stop-color="#8b5bff"/>
    </linearGradient>
  </defs>
  <!-- icon -->
  <rect x="4" y="4" width="56" height="56" rx="17" fill="url(#g)"/>
  <path d="M19 13 H39 L47 21 V49 q0 2 -2 2 H19 q-2 0 -2 -2 V15 q0 -2 2 -2 Z" fill="#fff"/>
  <path d="M39 13 L47 21 H39 Z" fill="#cdd5ff"/>
  <g stroke="#5b6cff" stroke-width="2.6" stroke-linecap="round">
    <line x1="23" y1="24" x2="43" y2="24"/><line x1="23" y1="31" x2="43" y2="31"/>
    <line x1="23" y1="38" x2="43" y2="38"/><line x1="23" y1="45" x2="40" y2="45"/>
  </g>
  <rect x="32" y="20" width="4" height="29" rx="2" fill="url(#g)"/>
  <g stroke="#5b6cff" stroke-width="2.6" stroke-linecap="round">
    <line x1="23" y1="24" x2="43" y2="24"/><line x1="23" y1="38" x2="43" y2="38"/>
  </g>
  <!-- wordmark (gradient → 라이트/다크 테마 모두에서 보임) -->
  <text x="74" y="43" font-family="-apple-system, BlinkMacSystemFont, 'Segoe UI', system-ui, sans-serif"
        font-size="36" font-weight="800" letter-spacing="-1.2" fill="url(#gt)">docloom</text>
</svg>
